# xmcd
#
# Track frame offsets:
#	150
#	14070
#	30139
#	46459
#	64409
#	78089
#	92214
#	106339
#	121183
#	134759
#	142281
#	155689
#	164679
#	176454
#	187620
#	200303
#	209515
#
# Disc length: 2975 seconds
#
# Revision: 1
# Processed by: cddbd v1.5.1PL0 Copyright (c) Steve Scherf et al.
# Submitted via: audiograbber 1.80
#
DISCID=f10b9d11
DTITLE=Stoaberg Musi - Folge 4
DYEAR=1900
DGENRE=
TTITLE0=Friedberger Marschpolka
TTITLE1=Lawetal Walzer
TTITLE2=Bleamestoa Boarischer
TTITLE3=Schwegl Walzer
TTITLE4=Rupertigauer Marschpolka
TTITLE5=Leitenbach Walzer
TTITLE6=Gmoaner Polka
TTITLE7=Mitterkar Walzer
TTITLE8=Bacheifeld Boarischer
TTITLE9=Lautenbacher Löffelpolka
TTITLE10=Thierberg Landler
TTITLE11=Schnoatseer Landler
TTITLE12=Brunnbach Boarischer
TTITLE13=Almer Landler
TTITLE14=Zwoa Herzal Polka
TTITLE15=Törlschneid Landler
TTITLE16=Unser Himmel weiß und blau
EXTD=
EXTT0=
EXTT1=
EXTT2=
EXTT3=
EXTT4=
EXTT5=
EXTT6=
EXTT7=
EXTT8=
EXTT9=
EXTT10=
EXTT11=
EXTT12=
EXTT13=
EXTT14=
EXTT15=
EXTT16=
PLAYORDER=
